<svg width="128" height="128" viewBox="0 0 128 128" xmlns="http://www.w3.org/2000/svg">
  <defs>
    <linearGradient id="grad1" x1="0%" y1="0%" x2="100%" y2="100%">
      <stop offset="0%" style="stop-color:#667eea;stop-opacity:1" />
      <stop offset="100%" style="stop-color:#764ba2;stop-opacity:1" />
    </linearGradient>
  </defs>
  
  <!-- Background circle -->
  <circle cx="64" cy="64" r="60" fill="url(#grad1)" stroke="#fff" stroke-width="4"/>
  
  <!-- Form document -->
  <rect x="32" y="24" width="64" height="80" rx="4" fill="#fff" opacity="0.9"/>
  
  <!-- Form lines -->
  <rect x="40" y="36" width="48" height="2" fill="#667eea" rx="1"/>
  <rect x="40" y="44" width="32" height="2" fill="#667eea" rx="1"/>
  <rect x="40" y="52" width="40" height="2" fill="#667eea" rx="1"/>
  <rect x="40" y="60" width="36" height="2" fill="#667eea" rx="1"/>
  <rect x="40" y="68" width="44" height="2" fill="#667eea" rx="1"/>
  <rect x="40" y="76" width="28" height="2" fill="#667eea" rx="1"/>
  <rect x="40" y="84" width="48" height="2" fill="#667eea" rx="1"/>
  
  <!-- Link symbol -->
  <g transform="translate(88, 88)">
    <circle cx="0" cy="0" r="12" fill="#fff" opacity="0.9"/>
    <path d="M-6,-6 L6,6 M-6,6 L6,-6" stroke="#667eea" stroke-width="2" stroke-linecap="round"/>
  </g>
  
  <!-- Prefill indicator -->
  <circle cx="88" cy="40" r="8" fill="#4CAF50"/>
  <text x="88" y="44" text-anchor="middle" fill="#fff" font-family="Arial" font-size="12" font-weight="bold">✓</text>
</svg> 